<?xml version="1.0" encoding="utf-8"?>
<!-- Generator: Adobe Illustrator 15.0.0, SVG Export Plug-In . SVG Version: 6.00 Build 0)  -->
<!DOCTYPE svg PUBLIC "-//W3C//DTD SVG 1.1//EN" "http://www.w3.org/Graphics/SVG/1.1/DTD/svg11.dtd">
<svg version="1.1" id="Layer_1" xmlns="http://www.w3.org/2000/svg" xmlns:xlink="http://www.w3.org/1999/xlink" x="0px" y="0px"
	 width="140.221px" height="19px" viewBox="0 0 140.221 19" enable-background="new 0 0 140.221 19" xml:space="preserve">
<g>
	<g>
		<path fill="#FFFFFF" d="M3.541,8.606v9.985H2.745l-1.937-1.865V9.815L4.54,6.031h2.733v2.576H3.541z"/>
	</g>
	<g>
		<path fill="#FFFFFF" d="M18.655,18.592h-7.438L8.669,16.2V8.422l2.548-2.392h7.438l2.547,2.392V16.2L18.655,18.592z M18.469,8.606
			h-7.068v7.411h7.068V8.606z"/>
	</g>
	<g>
		<path fill="#FFFFFF" d="M33.305,18.592h-7.409L23.347,16.2V0.25h0.866l1.867,1.866v5.518l1.55-1.603h5.675l2.55,2.419v7.75
			L33.305,18.592z M33.122,8.606H26.08v7.411h7.042V8.606z"/>
	</g>
	<g>
		<path fill="#FFFFFF" d="M47.853,18.592h-7.437L37.867,16.2V8.422l2.549-2.392h7.437l2.548,2.392V16.2L47.853,18.592z
			 M47.668,8.606H40.6v7.411h7.068V8.606z"/>
	</g>
</g>
<g opacity="0.8">
	<path fill="#FFFFFF" d="M65.947,8.166c0,0.089-0.005,0.167-0.015,0.231c-0.009,0.067-0.025,0.12-0.049,0.159
		c-0.024,0.04-0.051,0.069-0.082,0.088s-0.063,0.028-0.095,0.028h-3.336v3.098h3.153c0.033,0,0.065,0.008,0.096,0.023
		c0.03,0.017,0.057,0.044,0.081,0.083c0.023,0.036,0.039,0.088,0.05,0.149c0.008,0.064,0.014,0.145,0.014,0.243
		c0,0.09-0.005,0.167-0.014,0.229c-0.011,0.064-0.027,0.115-0.05,0.155c-0.024,0.039-0.05,0.07-0.081,0.092
		c-0.031,0.022-0.063,0.031-0.096,0.031h-3.153v3.794c0,0.033-0.01,0.066-0.028,0.095c-0.019,0.031-0.052,0.054-0.098,0.071
		c-0.047,0.017-0.108,0.029-0.183,0.041c-0.076,0.013-0.174,0.02-0.296,0.02c-0.112,0-0.209-0.007-0.289-0.02
		c-0.08-0.012-0.144-0.024-0.19-0.041c-0.047-0.018-0.08-0.04-0.099-0.071c-0.019-0.028-0.028-0.062-0.028-0.095V8.137
		c0-0.183,0.048-0.311,0.145-0.384c0.096-0.073,0.198-0.109,0.306-0.109h4.097c0.032,0,0.064,0.01,0.095,0.028
		c0.03,0.019,0.058,0.049,0.082,0.092c0.023,0.041,0.04,0.097,0.049,0.165C65.941,7.998,65.947,8.077,65.947,8.166z"/>
	<path fill="#FFFFFF" d="M73.973,16.569c0,0.038-0.006,0.069-0.02,0.099c-0.015,0.027-0.045,0.052-0.092,0.071
		c-0.047,0.019-0.112,0.031-0.197,0.042c-0.085,0.01-0.197,0.015-0.338,0.015c-0.123,0-0.22-0.005-0.3-0.015
		c-0.077-0.011-0.138-0.025-0.187-0.046c-0.045-0.02-0.082-0.051-0.109-0.089c-0.026-0.037-0.047-0.084-0.066-0.141l-0.837-2.147
		c-0.098-0.243-0.2-0.466-0.307-0.671c-0.105-0.204-0.231-0.38-0.375-0.528c-0.147-0.148-0.317-0.262-0.515-0.344
		c-0.197-0.082-0.434-0.124-0.71-0.124h-0.81v3.878c0,0.038-0.01,0.069-0.031,0.099c-0.022,0.027-0.055,0.05-0.1,0.067
		c-0.044,0.017-0.105,0.029-0.182,0.041c-0.078,0.013-0.175,0.02-0.292,0.02c-0.118,0-0.215-0.007-0.292-0.02
		c-0.077-0.012-0.14-0.024-0.187-0.041c-0.046-0.018-0.08-0.04-0.098-0.067c-0.019-0.029-0.028-0.061-0.028-0.099V8.137
		c0-0.183,0.048-0.311,0.144-0.384c0.096-0.073,0.198-0.109,0.306-0.109h1.936c0.229,0,0.421,0.006,0.574,0.018
		c0.151,0.012,0.289,0.024,0.411,0.039c0.352,0.061,0.663,0.157,0.933,0.289c0.271,0.131,0.497,0.298,0.679,0.5
		c0.184,0.202,0.32,0.433,0.413,0.693c0.091,0.261,0.136,0.549,0.136,0.863c0,0.304-0.041,0.578-0.123,0.819
		c-0.082,0.243-0.2,0.455-0.356,0.642c-0.154,0.186-0.341,0.346-0.557,0.481c-0.216,0.137-0.457,0.25-0.724,0.346
		c0.15,0.065,0.286,0.147,0.408,0.248c0.123,0.103,0.236,0.224,0.342,0.364c0.106,0.141,0.205,0.304,0.299,0.484
		c0.094,0.183,0.188,0.39,0.281,0.62l0.817,2.006c0.065,0.17,0.107,0.287,0.127,0.356C73.964,16.478,73.973,16.531,73.973,16.569z
		 M72.151,10.172c0-0.357-0.081-0.659-0.24-0.905c-0.161-0.246-0.428-0.423-0.803-0.532c-0.118-0.033-0.25-0.057-0.397-0.07
		c-0.149-0.015-0.343-0.021-0.582-0.021h-1.021v3.069h1.183c0.318,0,0.594-0.038,0.826-0.117c0.233-0.076,0.426-0.185,0.582-0.323
		c0.155-0.138,0.268-0.3,0.341-0.488C72.113,10.597,72.151,10.392,72.151,10.172z"/>
	<path fill="#FFFFFF" d="M82.662,16.324c0.038,0.103,0.058,0.185,0.06,0.249c0.003,0.063-0.016,0.111-0.053,0.145
		c-0.036,0.032-0.1,0.053-0.186,0.063c-0.088,0.01-0.204,0.015-0.35,0.015c-0.145,0-0.261-0.003-0.348-0.011
		c-0.087-0.009-0.153-0.021-0.198-0.036c-0.043-0.017-0.076-0.039-0.098-0.066c-0.021-0.027-0.041-0.063-0.06-0.104l-0.781-2.22
		h-3.787l-0.746,2.191c-0.014,0.04-0.033,0.078-0.057,0.109c-0.024,0.029-0.059,0.057-0.104,0.076
		c-0.044,0.021-0.108,0.035-0.189,0.046c-0.081,0.01-0.188,0.015-0.32,0.015c-0.136,0-0.247-0.007-0.334-0.02
		c-0.087-0.012-0.147-0.033-0.183-0.066c-0.035-0.032-0.051-0.08-0.049-0.145c0.003-0.063,0.022-0.146,0.061-0.25l3.054-8.46
		c0.02-0.051,0.043-0.094,0.074-0.126c0.031-0.032,0.076-0.059,0.134-0.077c0.059-0.019,0.133-0.032,0.225-0.04
		c0.093-0.006,0.209-0.01,0.35-0.01c0.149,0,0.274,0.003,0.373,0.01c0.099,0.008,0.177,0.021,0.239,0.04
		c0.061,0.019,0.107,0.046,0.14,0.081c0.033,0.035,0.059,0.079,0.078,0.129L82.662,16.324z M78.742,8.855h-0.008l-1.569,4.541h3.167
		L78.742,8.855z"/>
	<path fill="#FFFFFF" d="M94.201,16.569c0,0.038-0.01,0.069-0.028,0.099c-0.02,0.027-0.054,0.05-0.103,0.067
		c-0.047,0.017-0.109,0.029-0.185,0.041c-0.075,0.013-0.173,0.02-0.293,0.02c-0.111,0-0.208-0.007-0.287-0.02
		c-0.08-0.012-0.142-0.024-0.188-0.041c-0.046-0.018-0.079-0.04-0.097-0.067c-0.021-0.029-0.029-0.061-0.029-0.099V8.637h-0.014
		l-3.21,7.969c-0.015,0.03-0.035,0.058-0.061,0.084c-0.026,0.023-0.063,0.042-0.113,0.059c-0.049,0.016-0.107,0.027-0.175,0.036
		c-0.068,0.008-0.15,0.011-0.243,0.011c-0.099,0-0.184-0.005-0.254-0.015c-0.069-0.011-0.128-0.021-0.176-0.038
		c-0.047-0.017-0.083-0.036-0.108-0.061c-0.026-0.023-0.044-0.049-0.054-0.076l-3.069-7.969h-0.006v7.932
		c0,0.038-0.01,0.069-0.028,0.099c-0.021,0.027-0.054,0.05-0.104,0.067c-0.048,0.017-0.11,0.029-0.188,0.041
		c-0.076,0.013-0.176,0.02-0.297,0.02c-0.116,0-0.212-0.007-0.289-0.02c-0.077-0.012-0.14-0.024-0.185-0.041
		c-0.047-0.018-0.078-0.04-0.095-0.067c-0.017-0.029-0.026-0.061-0.026-0.099V8.193c0-0.197,0.054-0.338,0.157-0.422
		c0.105-0.085,0.222-0.127,0.352-0.127h0.742c0.153,0,0.285,0.014,0.401,0.042c0.113,0.028,0.214,0.073,0.299,0.134
		c0.087,0.061,0.158,0.138,0.215,0.232c0.057,0.094,0.107,0.204,0.15,0.331l2.604,6.595h0.035l2.71-6.574
		c0.052-0.141,0.11-0.261,0.172-0.358c0.063-0.1,0.13-0.177,0.203-0.236c0.074-0.059,0.157-0.101,0.247-0.127
		c0.091-0.025,0.195-0.039,0.314-0.039h0.779c0.072,0,0.14,0.01,0.204,0.032s0.118,0.054,0.165,0.099
		c0.045,0.044,0.081,0.101,0.11,0.169c0.029,0.068,0.043,0.151,0.043,0.25V16.569z"/>
	<path fill="#FFFFFF" d="M101.807,16.253c0,0.084-0.006,0.159-0.015,0.224c-0.011,0.062-0.026,0.113-0.05,0.157
		c-0.023,0.042-0.05,0.073-0.08,0.091c-0.031,0.019-0.066,0.027-0.103,0.027h-4.372c-0.108,0-0.21-0.034-0.306-0.109
		c-0.096-0.071-0.145-0.199-0.145-0.382V8.137c0-0.183,0.049-0.311,0.145-0.384c0.096-0.073,0.197-0.109,0.306-0.109h4.323
		c0.037,0,0.07,0.01,0.102,0.028c0.03,0.019,0.056,0.049,0.074,0.092c0.019,0.041,0.034,0.095,0.046,0.158
		c0.011,0.064,0.017,0.142,0.017,0.236c0,0.084-0.006,0.158-0.017,0.222c-0.012,0.063-0.027,0.115-0.046,0.155
		s-0.044,0.069-0.074,0.087c-0.031,0.02-0.064,0.028-0.102,0.028h-3.563v2.859h3.056c0.037,0,0.071,0.01,0.102,0.031
		s0.057,0.05,0.077,0.088c0.021,0.038,0.036,0.088,0.047,0.153c0.009,0.067,0.014,0.145,0.014,0.234
		c0,0.084-0.005,0.157-0.014,0.218c-0.011,0.06-0.025,0.109-0.047,0.147c-0.021,0.037-0.047,0.064-0.077,0.081
		s-0.064,0.025-0.102,0.025h-3.056v3.259h3.611c0.036,0,0.071,0.009,0.103,0.027c0.03,0.02,0.057,0.049,0.08,0.087
		c0.023,0.041,0.039,0.094,0.05,0.156C101.801,16.081,101.807,16.158,101.807,16.253z"/>
	<path fill="#FFFFFF" d="M112.612,16.485c-0.018,0.065-0.046,0.119-0.084,0.157c-0.037,0.042-0.09,0.073-0.154,0.093
		c-0.066,0.021-0.146,0.035-0.243,0.046c-0.096,0.01-0.215,0.015-0.354,0.015c-0.146,0-0.269-0.005-0.37-0.015
		c-0.101-0.011-0.186-0.025-0.25-0.046c-0.065-0.02-0.116-0.051-0.148-0.093c-0.032-0.038-0.06-0.092-0.076-0.157l-1.907-6.877
		h-0.015l-1.759,6.877c-0.016,0.065-0.04,0.119-0.071,0.157c-0.033,0.042-0.081,0.073-0.143,0.093
		c-0.06,0.021-0.139,0.035-0.234,0.046c-0.097,0.01-0.22,0.015-0.369,0.015c-0.156,0-0.285-0.005-0.388-0.015
		c-0.103-0.011-0.188-0.025-0.254-0.046c-0.065-0.02-0.116-0.051-0.15-0.093c-0.036-0.038-0.061-0.092-0.074-0.157l-2.407-8.411
		c-0.028-0.108-0.043-0.192-0.047-0.253c-0.002-0.062,0.017-0.108,0.057-0.141c0.041-0.033,0.104-0.054,0.195-0.063
		c0.089-0.01,0.207-0.014,0.358-0.014c0.145,0,0.261,0.003,0.345,0.01c0.085,0.008,0.147,0.021,0.193,0.04
		c0.045,0.019,0.074,0.045,0.091,0.077c0.017,0.033,0.03,0.075,0.038,0.126l2.05,7.63h0.006l1.943-7.616
		c0.015-0.051,0.031-0.095,0.053-0.13c0.021-0.035,0.056-0.062,0.103-0.081c0.046-0.019,0.113-0.033,0.199-0.042
		c0.089-0.01,0.201-0.014,0.342-0.014c0.132,0,0.236,0.004,0.314,0.014c0.077,0.009,0.139,0.023,0.188,0.042
		c0.044,0.019,0.08,0.046,0.1,0.081c0.021,0.036,0.04,0.079,0.054,0.13l2.091,7.616h0.014l2.006-7.623
		c0.015-0.046,0.028-0.087,0.043-0.123c0.014-0.035,0.043-0.062,0.088-0.081c0.044-0.019,0.107-0.033,0.19-0.042
		c0.082-0.01,0.189-0.014,0.326-0.014c0.142,0,0.253,0.006,0.335,0.018s0.142,0.034,0.18,0.066c0.036,0.033,0.055,0.08,0.053,0.141
		c-0.003,0.061-0.017,0.146-0.038,0.253L112.612,16.485z"/>
	<path fill="#FFFFFF" d="M124.308,12.093c0,0.737-0.087,1.399-0.261,1.992c-0.174,0.59-0.432,1.095-0.777,1.51
		c-0.345,0.415-0.778,0.735-1.299,0.958c-0.521,0.222-1.129,0.333-1.822,0.333c-0.687,0-1.278-0.101-1.777-0.306
		c-0.501-0.204-0.913-0.501-1.239-0.891c-0.327-0.389-0.569-0.874-0.729-1.447c-0.16-0.58-0.24-1.244-0.24-1.993
		c0-0.719,0.088-1.37,0.261-1.959c0.174-0.585,0.434-1.083,0.781-1.495c0.348-0.41,0.781-0.727,1.303-0.95
		c0.521-0.223,1.128-0.334,1.822-0.334c0.672,0,1.256,0.101,1.753,0.302c0.498,0.202,0.912,0.497,1.243,0.884
		s0.576,0.866,0.738,1.436S124.308,11.356,124.308,12.093z M123.026,12.178c0-0.516-0.046-0.995-0.137-1.439
		c-0.092-0.444-0.244-0.828-0.457-1.155c-0.213-0.325-0.498-0.58-0.854-0.763c-0.355-0.183-0.797-0.274-1.32-0.274
		c-0.525,0-0.967,0.099-1.323,0.295s-0.645,0.461-0.867,0.789c-0.224,0.328-0.383,0.712-0.479,1.151
		c-0.097,0.438-0.144,0.899-0.144,1.383c0,0.535,0.044,1.029,0.134,1.479c0.089,0.45,0.237,0.84,0.448,1.165
		c0.213,0.325,0.494,0.58,0.847,0.759c0.355,0.183,0.8,0.272,1.333,0.272c0.53,0,0.976-0.099,1.336-0.296
		c0.361-0.196,0.651-0.465,0.872-0.799c0.22-0.337,0.377-0.723,0.471-1.165C122.98,13.138,123.026,12.669,123.026,12.178z"/>
	<path fill="#FFFFFF" d="M132.412,16.569c0,0.038-0.008,0.069-0.021,0.099c-0.015,0.027-0.046,0.052-0.093,0.071
		c-0.047,0.019-0.112,0.031-0.197,0.042c-0.084,0.01-0.196,0.015-0.337,0.015c-0.123,0-0.222-0.005-0.3-0.015
		c-0.077-0.011-0.14-0.025-0.187-0.046c-0.047-0.02-0.083-0.051-0.109-0.089c-0.026-0.037-0.048-0.084-0.066-0.141l-0.838-2.147
		c-0.098-0.243-0.2-0.466-0.306-0.671c-0.106-0.204-0.231-0.38-0.376-0.528c-0.147-0.148-0.317-0.262-0.514-0.344
		c-0.197-0.082-0.435-0.124-0.711-0.124h-0.81v3.878c0,0.038-0.011,0.069-0.033,0.099c-0.021,0.027-0.054,0.05-0.098,0.067
		c-0.045,0.017-0.105,0.029-0.183,0.041c-0.078,0.013-0.177,0.02-0.293,0.02c-0.117,0-0.215-0.007-0.291-0.02
		c-0.078-0.012-0.141-0.024-0.188-0.041c-0.047-0.018-0.08-0.04-0.098-0.067c-0.02-0.029-0.028-0.061-0.028-0.099V8.137
		c0-0.183,0.047-0.311,0.144-0.384c0.097-0.073,0.199-0.109,0.307-0.109h1.935c0.23,0,0.422,0.006,0.574,0.018
		c0.152,0.012,0.29,0.024,0.412,0.039c0.353,0.061,0.662,0.157,0.933,0.289c0.27,0.131,0.496,0.298,0.68,0.5
		c0.183,0.202,0.319,0.433,0.411,0.693c0.093,0.261,0.137,0.549,0.137,0.863c0,0.304-0.041,0.578-0.123,0.819
		c-0.08,0.243-0.2,0.455-0.355,0.642c-0.154,0.186-0.34,0.346-0.556,0.481c-0.216,0.137-0.458,0.25-0.725,0.346
		c0.15,0.065,0.286,0.147,0.408,0.248c0.122,0.103,0.235,0.224,0.341,0.364c0.107,0.141,0.206,0.304,0.3,0.484
		c0.094,0.183,0.188,0.39,0.28,0.62l0.817,2.006c0.066,0.17,0.107,0.287,0.127,0.356C132.402,16.478,132.412,16.531,132.412,16.569z
		 M130.59,10.172c0-0.357-0.081-0.659-0.24-0.905c-0.16-0.246-0.428-0.423-0.802-0.532c-0.118-0.033-0.251-0.057-0.398-0.07
		c-0.147-0.015-0.342-0.021-0.58-0.021h-1.021v3.069h1.183c0.317,0,0.594-0.038,0.826-0.117c0.232-0.076,0.426-0.185,0.581-0.323
		c0.154-0.138,0.269-0.3,0.341-0.488C130.552,10.597,130.59,10.392,130.59,10.172z"/>
	<path fill="#FFFFFF" d="M140.221,16.557c0,0.036-0.009,0.071-0.024,0.103c-0.017,0.029-0.049,0.055-0.095,0.073
		c-0.048,0.018-0.111,0.032-0.19,0.044c-0.08,0.013-0.183,0.02-0.31,0.02c-0.165,0-0.299-0.009-0.4-0.021
		c-0.104-0.015-0.182-0.04-0.233-0.079c-0.052-0.036-0.094-0.08-0.126-0.126l-3.351-4.553v4.553c0,0.033-0.011,0.066-0.028,0.095
		c-0.02,0.031-0.053,0.054-0.099,0.071c-0.048,0.017-0.11,0.029-0.188,0.041c-0.077,0.013-0.175,0.02-0.292,0.02
		c-0.112,0-0.209-0.007-0.289-0.02c-0.08-0.012-0.143-0.024-0.189-0.041c-0.047-0.018-0.08-0.04-0.099-0.071
		c-0.018-0.028-0.028-0.062-0.028-0.095V7.827c0-0.037,0.011-0.07,0.028-0.098c0.019-0.028,0.052-0.051,0.099-0.067
		s0.109-0.03,0.189-0.042s0.177-0.018,0.289-0.018c0.117,0,0.215,0.006,0.292,0.018s0.14,0.026,0.188,0.042
		c0.046,0.016,0.079,0.039,0.099,0.067c0.018,0.028,0.028,0.061,0.028,0.098v4.049l3.224-4.049c0.028-0.042,0.061-0.078,0.099-0.105
		c0.037-0.028,0.083-0.05,0.136-0.067c0.055-0.016,0.12-0.029,0.198-0.038c0.077-0.01,0.177-0.014,0.299-0.014
		c0.121,0,0.221,0.006,0.295,0.018c0.076,0.012,0.136,0.027,0.181,0.045c0.044,0.019,0.074,0.043,0.091,0.071
		c0.017,0.028,0.024,0.059,0.024,0.091c0,0.061-0.015,0.123-0.045,0.184c-0.031,0.061-0.088,0.145-0.172,0.253l-3.021,3.612
		l3.252,4.32c0.08,0.121,0.129,0.205,0.146,0.251C140.212,16.491,140.221,16.529,140.221,16.557z"/>
</g>
</svg>
